<?xml version="1.0" encoding="UTF-8"?><svg id="a" xmlns="http://www.w3.org/2000/svg" width="200" height="75" viewBox="0 0 200 75"><path d="M3.3899,34.627c0-.9614,1.0488-.437,2.5352-.437,1.3555,0,1.3994,.2622,2.5791-2.5356,3.3662-7.9561,8.1318-20.4155,9.793-24.2188,.874-2.0547,.918-2.3169-1.0059-2.3169-1.6172,0-3.8467,.481-3.8467-.2622,0-1.0493,1.6611-.6123,4.6338-.6123,4.8965,0,3.541-.437,4.8965,3.2349,2.0547,5.5522,5.7266,14.9512,8.2188,21.9458,1.6611,4.6777,1.4863,4.8091,3.1914,4.8091,1.3545,0,2.623-.6123,2.623,.4805,0,.8306-1.3555,.3501-4.8965,.3062-4.1094-.0435-5.7266,.481-5.7266-.437,0-.8745,1.5293-.2188,3.2344-.3496,2.5791-.1753,2.1426-.3936,.5684-5.0278-1.4424-4.2402-.9619-4.1968-3.8467-4.1968H14.7121c-2.8848,0-2.5791-.2183-4.2842,4.3281-1.792,4.7212-2.7979,4.8965,.4375,4.8965,1.3545,0,2.9287-.5249,2.9287,.3057,0,.8745-1.5742,.5249-5.7266,.481-2.9727-.0435-4.6777,.5684-4.6777-.3936Zm22.0762-10.4917c2.5361,0,2.667-.437,1.749-2.9292-2.4043-6.5571-4.0215-10.6665-5.1143-13.5957-.8311-2.186-.9189-2.5791-1.5303-2.5791-.5684,0-.6562,.6992-1.1807,2.0547-.9619,2.4478-4.8525,12.022-6.1201,15.2568-.7432,1.8799-.6562,1.7925,1.3115,1.7925h10.8848Z" fill="#fff"/><path d="M42.8645,34.4087c0-9.4868,.1748-27.5854,.1748-28.1533,0-.6997-.0869-1.0493-.5684-1.0493-1.2676,0-4.2402,2.3169-4.2402,1.0054,0-.5684,1.3115-.7432,2.8418-1.4863,.918-.437,1.4863-.918,2.0547-.918,.6113,0,.8301,.3936,.8301,1.2241-.043,.7432-.1748,10.8853-.1748,11.8032,0,.6123-.2188,1.4429,.1748,1.4429,.4814,0,.5244-1.3555,2.5361-3.3662,1.5732-1.5737,3.8906-2.667,6.7754-2.667,6.1211,0,9.6621,4.7217,9.6621,11.1914s-3.541,11.7163-9.6621,11.7163c-3.3223,0-5.5957-1.2681-6.9502-2.623-1.3555-1.2681-1.8369-2.623-2.1865-2.623-.5244,0-.4365,1.5303-.4365,4.6338,0,.4375-.0879,.6123-.3936,.6123-.2188,0-.4375-.1313-.4375-.7432Zm19.1914-10.9731c0-5.9014-3.1475-10.3169-8.7871-10.3169-6.3818,0-9.4424,5.8145-9.4424,10.4043,0,6.9072,3.9785,10.7544,9.4424,10.7544,5.6396,0,8.7871-4.896,8.7871-10.8418Z" fill="#fff"/><path d="M69.2248,33.1846c-.7432-2.2295-.7871-3.3228,.1748-3.541,.7432-.1748,.9619,.1748,1.4863,.918,2.0107,2.8853,3.9785,4.1094,7.8252,4.1094,3.7158,0,6.3389-1.9673,6.3389-5.0713,0-3.3662-2.4482-4.7651-7.8691-5.8579-2.6221-.5244-5.377-.9619-6.8193-2.5356-.6992-.7432-1.0928-1.6611-1.0928-2.9727,0-2.9727,2.623-5.5518,7.1689-5.5518,3.6289,0,5.1152,.9614,6.3389,2.1855,.5684,.5684,.6562,.6558,1.0498,.6558,.8301,0-.7432-2.6665,.3496-2.6665,.6123,0,.7871,.6558,1.0059,1.8359,.3496,1.9673,.6992,3.3662-.2627,3.3662-.6553,0-1.0488-.437-1.4424-1.0493-1.3994-2.1855-3.585-3.4536-7.0391-3.4536-3.8906,0-6.2949,2.0986-6.2949,4.5903,0,3.104,2.7539,3.8472,7.082,4.7212,3.1914,.6558,5.8584,1.3555,7.3447,2.9731,.8301,.918,1.3115,2.1421,1.3115,3.8032,0,3.4536-2.9727,5.9014-7.1699,5.9014-3.0166,0-5.1582-.8306-6.6445-2.1855-.874-.8306-1.2246-1.2676-1.6611-1.2676-1.0498,0,1.748,3.4531-.1309,3.4531-.5684,0-.5684-.874-1.0498-2.3604Z" fill="#fff"/><path d="M91.5198,24.0479c0-6.3828,4.0225-11.2788,10.5361-11.2788,6.4697,0,10.2734,4.896,10.2734,11.2788s-3.8037,11.3662-10.2734,11.3662c-6.5137,0-10.5361-4.9839-10.5361-11.3662Zm19.8916,0c0-5.9019-3.1475-10.4048-9.3555-10.4048-6.0771,0-9.6182,4.5029-9.6182,10.4048,0,5.5518,3.541,10.4482,9.6182,10.4482,6.251,0,9.3555-4.8965,9.3555-10.4482Z" fill="#fff"/><path d="M116.2629,34.4961c0-1.0493,1.2246-.4375,3.1475-.4375,1.6182,0,1.4434-.1309,1.4863-4.2842l.0439-19.3662c0-1.9673,.1748-3.3223,.1748-4.0654,0-.6997-.0869-1.0493-.5684-1.0493-1.2676,0-4.2402,2.623-4.2402,1.0054,0-.5684,1.3115-.7432,2.8418-1.4863,.918-.437,1.4863-.918,2.0547-.918,.6113,0,.8301,.3936,.8301,1.2241,0,1.8799-.2188,4.1528-.2188,5.4644,0,4.5029,0,15.0386-.043,19.1914,0,3.9785-.2627,4.0659,1.748,4.2407,1.3994,.1313,2.7109-.481,2.7109,.3936,0,.9614-1.3994,.3931-4.5469,.437-4.1533,.0439-5.4209,.5244-5.4209-.3496Z" fill="#fff"/><path d="M132.3948,29.4688c0-3.6284,.4805-9.2241,.4805-13.9458,0-.6992-.0869-1.0493-.5684-1.0493-1.2676,0-4.2402,2.623-4.2402,1.0059,0-.5684,1.3115-.7432,2.8418-1.4863,.918-.4375,1.4863-.9185,2.0547-.9185,.6113,0,.8301,.3936,.8301,1.2241,0,6.4263-.4805,12.8965-.4805,15.2573,0,3.541,1.8359,5.377,5.2891,5.377,5.5088,0,7.3887-5.5518,7.6943-9.0493,.3066-3.3223,.5684-8.0874,.5684-10.3608,0-.6992-.0869-1.0493-.5684-1.0493-1.2676,0-4.2402,2.623-4.2402,1.0059,0-.5684,1.3115-.7432,2.8418-1.4863,.918-.4375,1.4863-.9185,2.0547-.9185,.6113,0,.8301,.3936,.8301,1.2241,0,4.8965-.5684,10.7104-.5684,15.2573,0,3.541,1.0928,4.5903,2.7109,4.6338,2.1416,.0439,2.3164-2.8413,3.0166-2.8413,.3057,0,.3926,.1748,.3926,.3931,0,.7871-1.0488,3.3662-3.541,3.3662-1.5732,0-2.8848-1.0054-3.1475-3.104-.1309-1.0488-.1309-1.6611-.4805-1.6611-.4375,0-.6992,1.6177-2.1426,3.104-1.4863,1.5303-3.1914,2.3608-5.5078,2.3608-3.9346,0-6.1201-2.2295-6.1201-6.3389Z" fill="#fff"/><path d="M159.1487,28.1133c0-1.9233,0-4.896,.0439-7.519,.0869-6.3389,.5684-6.0327-1.3994-6.0327-2.623,0-3.1914,.1309-3.1914-.4375,0-1.0928,3.1045-.0435,4.1533-.6558,.874-.5244,0-3.8032,.8311-3.8032,.6113,0,.4805,.437,.4805,2.7979,0,1.7485-.2188,1.1802,4.5469,1.1802,4.1094,0,5.2891-.1748,5.2891,.3936v.1748c0,.7871-1.3115,.2622-8.2617,.2622-2.0986,0-1.6621,.6997-1.6621,6.1206v7.519c0,3.8032,1.0498,6.5137,5.6396,6.5137,2.7979,0,4.0225-1.9673,4.7217-1.9673,.1748,0,.3496,.0874,.3496,.3062,0,.918-2.7979,2.5791-5.0713,2.5791-5.0273,0-6.4697-3.1475-6.4697-7.4316Z" fill="#fff"/><path d="M175.1047,24.1787c0-6.3823,4.2842-11.541,10.4482-11.541,6.9072,0,9.4863,5.5083,9.4863,9.9238,0,1.5298-.3496,1.8359-1.3555,1.8359h-16.3936c-.874,0-1.2676-.1313-1.1807,.9619,.4814,5.9014,4.1973,9.3115,9.4434,9.3115,4.0215,0,5.9453-1.4863,7.2129-2.9727,.6562-.8306,.7871-1.2681,1.2246-1.2681,.3496,0,.5684,.3501,.2617,.7871-1.5732,2.0981-3.9346,4.3276-8.7432,4.3276-6.251,0-10.4043-4.6338-10.4043-11.3662Zm19.0166-1.6172c0-4.1968-2.3174-9.0493-8.5684-9.0493-5.377,0-9.3555,4.6338-9.3555,9.0493,0,1.355,.3496,.9614,8.4375,.9614,9.7051,0,9.4863,.5249,9.4863-.9614Z" fill="#fff"/><path d="M4.4387,58.5537c.4814-9.6611,7.3447-19.104,18.1865-18.623,2.623,.1313,3.584,.437,5.0713,1.4863,.8301,.6123,1.2236,1.3115,1.9668,1.3555,1.3555,.0874,1.0488-2.186,3.4102-2.0547,2.0547,.0874,2.0547,1.1362,3.0596,4.3711,1.5303,4.9404,.0879,6.9512-3.2783,7.7383-3.0605,.7432-4.5029-.3496-6.3389-2.9727-.918-1.3115-1.9678-2.0547-3.541-2.1426-3.7158-.2617-6.9512,4.2842-7.2568,9.749-.1748,2.8418,.8301,5.0713,3.6719,5.2461,1.4424,.0869,2.7979,.1309,3.1035-.9619,.3066-.874,.0879-1.1807-.5244-1.2236-1.5303-.1318-1.7051-.5684-1.6611-1.5303,.1309-3.1475,2.0107-4.5469,5.6836-4.415,3.4092,.1309,5.5518,.043,7.4756,.1309,2.71,.1309,2.2295,1.6172,1.1797,4.1533-.918,2.3164-1.3115,2.4043-2.2734,3.1904-.6992,.6562-.9609,1.6182-1.1357,2.8418-.0879,.8311,0,.918-.3066,3.0605-.3496,2.71-1.2676,3.8906-4.415,3.6719-1.3555-.0869-1.8359-.8301-1.749-1.8359,.1318-1.4424,.1748-2.0986-.3496-2.1426-.4375-.043-.6553-.043-1.6172,1.3555-1.749,2.3174-4.2412,2.7539-7.6504,2.623-6.9951-.3057-11.1045-6.0762-10.7109-13.0713Z" fill="#fff"/><path d="M37.1379,68.6523c-1.3105-1.6611-2.0107-3.8037-2.0107-6.3389,0-7.5195,5.0713-15.3447,14.5137-15.3447,3.541,0,5.8145,1.1367,7.2139,2.623,1.1367,1.1367,1.748,2.667,1.7051,4.6338-.1318,4.3281-2.0117,7.1699-7.1699,7.8252-4.1533,.4814-5.7705-1.9668-6.3389-1.9668-.4805-.0439-.7432,.2627-.8301,.6123-.4814,2.2734,1.6172,3.8906,4.9395,3.8906,1.8359,0,3.541-.5244,4.6777-1.0928,1.792-.8311,3.0166,.1309,2.4922,1.9229-.8311,3.3662-4.1094,6.7764-10.667,6.7764-4.3281,0-6.9951-1.6172-8.5254-3.541Zm13.5527-13.2021c0-1.1807-.7871-1.6172-1.9238-1.6172-1.6172,0-2.9727,1.1357-2.8848,1.9229,.0869,.8311,1.3545,1.3115,2.666,1.3115,1.0498,.0439,2.1426-.2188,2.1426-1.6172Z" fill="#fff"/><path d="M72.4162,66.9473c0-2.623,1.1367-4.5029,2.0986-6.0762,.6123-1.0059,1.2676-2.0547,1.2676-3.8906,0-.7002-.4805-1.0938-.9619-1.0938-.9619,0-1.4863,.2627-2.1855,1.1367-.6553,.8311-1.3555,2.0986-1.7051,3.1484-.3496,1.0049-.5684,2.0547-.5244,3.1475,0,1.6611,.5684,2.4912,.5684,3.7588,.0439,3.1484-1.8799,4.5469-7.2568,4.5469-3.9346,0-6.208-.6992-6.208-3.8027,0-1.5742,.874-2.9736,2.4043-3.8916,2.3613-1.3545,3.3662-4.0654,3.585-5.9014,0-.6992-.3057-.918-.918-.918-.1748,0-.5244-.1309-.874-.1309-1.0059,0-2.2734-.4375-1.6621-2.667,1.0059-3.8467,4.5469-7.1699,7.8262-6.7764,1.792,.2188,2.4473,.8311,3.0156,1.793,.5254,.918,.6123,1.8799,1.1367,1.8799,.8311,0,1.5303-.875,2.7109-1.8799,1.3115-1.0928,2.9287-2.1426,5.5518-2.1426,4.2842,0,6.7324,2.4922,6.7324,5.8584,0,2.8408-1.793,5.1582-3.1035,7.082-.9619,1.4424-1.3555,2.3164-1.3555,3.1035,0,.6992,.3496,1.1367,1.0928,1.1367,.6553,0,1.1807-.3057,1.749-.3057,.6553,0,.918,.6553,.9609,1.4424,.0439,3.0166-2.8408,6.6885-8,6.6885-4.0215,0-5.9453-2.2734-5.9453-5.2461Z" fill="#fff"/><path d="M87.5422,65.6357c.1748-2.623,1.4424-5.2461,3.541-7.6064,1.1357-1.1807,.6992-1.5303-.0879-1.5303-.1748,0-.4375-.1748-.6992-.1748-1.5742,0-1.8799-1.3115-1.3555-2.8418,1.0928-3.1035,6.3828-5.8574,10.0986-5.7705,3.0166,.0439,4.6777,1.4434,4.6338,3.8477,0,3.0166-2.666,4.2842-4.7646,8.3496-.7432,1.4863-.875,1.9238-.875,2.8418,0,.3496,.0879,.6113,.3496,.6553,.7002,.1748,1.1807-.1309,1.7051-.1309,.9619,0,1.0938,.918,1.1367,1.9238,.0439,3.1035-2.7979,6.7754-7.9121,6.6885-3.8037-.0879-6.0771-2.5361-5.7705-6.252Zm7.5625-22.3389c.0439-2.4917,2.8418-5.2021,7.8252-5.1147,2.9297,.0435,4.7217,1.2676,4.6777,3.5845-.0439,3.0166-2.0986,5.2021-7.5195,5.0713-3.1475-.0439-5.0273-1.0928-4.9834-3.541Z" fill="#fff"/><path d="M118.1858,52.6084c0,2.623-1.0928,4.2842-1.9668,5.9014-.2627,.5684-.5684,1.4434-.5684,2.5361,0,.6992,.4375,1.0928,.918,1.0928,.7871,0,1.3115-.2627,2.0107-1.1367,.6123-.7871,1.2246-1.9238,1.6182-3.8037,.8301-3.2783-.4814-3.4531,0-5.9014,.5684-2.5791,2.2725-4.0215,6.3818-4.0215,4.7656,0,7.0391,1.1367,6.1641,4.8086-.6113,2.4043-2.666,2.3604-4.0215,5.8145-.6562,1.7051-1.2236,3.1914-1.2236,4.8525,0,.7861,.2178,.9619,.8301,.9619,.4375,0,.8311-.2188,1.2676-.2188,.918,0,1.3555,.6113,1.3555,1.8359,.0439,4.459-3.9785,7.0381-8.6992,6.4258-1.5742-.1748-3.0166-1.3115-3.541-2.0107-.8311-.9619-1.2246-2.4912-1.749-2.4912-.918,0-.918,1.5293-2.0107,2.71-1.0059,1.3115-2.0986,2.0547-4.5029,2.0547-4.3721,0-6.8203-2.4482-6.8203-5.7266,0-2.8418,1.793-5.2021,3.0605-7.082,.8311-1.2686,.9619-1.6182,.9619-2.2734,0-.3057-.2188-.7432-.9619-.7432-.2188,0-.4375-.1309-.874-.1309-1.2676,0-1.5303-.6562-1.4434-1.6182,.3066-3.3223,3.1045-7.2568,7.8691-7.2568,4.0664,0,5.9453,2.4043,5.9453,5.4209Z" fill="#fff"/><path d="M139.2131,71.1006c-.9619-.6123-1.1807-1.0928-2.0107-1.0928-1.0498,0,0,1.6611-2.5361,1.6611-1.9668,.0439-2.7539-.874-3.0596-5.0713-.1748-3.0605,.7432-4.1963,3.8906-4.3281,1.9238-.0869,2.4043,.4375,3.8037,1.7051,1.0488,.918,2.2295,1.8799,4.6768,1.9678,.7002,.043,1.0059-.1748,.9619-.7871,0-.5684-.3057-1.0498-3.7158-2.1426-4.7217-1.3984-6.9072-3.4531-6.9072-7.5625-.0439-5.6836,4.5469-8.4814,9.2246-8.4375,2.0107,.0439,3.1914,.3936,4.1963,1.2676,.5684,.3936,.7871,.918,1.3555,.918,.9619,0,.3496-1.748,3.0166-1.748,1.6611,0,2.1416,1.0488,2.9287,4.1963,.7871,3.1914-.0869,4.3721-2.667,4.8965-2.1416,.3936-3.0156,.0879-4.6777-1.3555-1.6172-1.3984-2.7969-1.9668-4.3711-1.9668-.6562,0-1.1367,.3496-1.1367,1.0049,.0439,.6123,.4375,.918,2.623,1.7051,6.0332,2.0986,7.9561,3.8477,7.8691,8.4375-.0879,5.1152-4.7217,7.8691-8.7002,7.7812-2.623-.043-3.8467-.5244-4.7646-1.0488Z" fill="#fff"/></svg>